<svg width="14" height="14" viewBox="0 0 14 14" fill="#FFF" xmlns="http://www.w3.org/2000/svg">
<path d="M6.9825 12.75C8.40764 12.75 9.69912 12.2382 10.6947 11.4018L11.2509 11.958C10.1184 12.9316 8.61574 13.5 7 13.5C3.42614 13.5 0.5 10.5739 0.5 7C0.5 3.42909 3.42131 0.504833 6.99115 0.500006C8.7666 0.502464 10.3721 1.26173 11.5464 2.43605L11.9 2.78961L12.2536 2.43605L13.4825 1.20711V4.75H9.93961L10.9936 3.69605L11.3439 3.34573L10.9968 2.9922C9.97198 1.94843 8.58822 1.25 6.9825 1.25C3.80136 1.25 1.2325 3.81886 1.2325 7C1.2325 10.1811 3.80136 12.75 6.9825 12.75Z" fill="#FFF" stroke="#FFF"/>
</svg>
